<?xml version="1.0" encoding="UTF-8" standalone="no"?>
<svg
   xmlns:dc="http://purl.org/dc/elements/1.1/"
   xmlns:cc="http://creativecommons.org/ns#"
   xmlns:rdf="http://www.w3.org/1999/02/22-rdf-syntax-ns#"
   xmlns:svg="http://www.w3.org/2000/svg"
   xmlns="http://www.w3.org/2000/svg"
   xmlns:sodipodi="http://sodipodi.sourceforge.net/DTD/sodipodi-0.dtd"
   xmlns:inkscape="http://www.inkscape.org/namespaces/inkscape"
   viewBox="0 0 129.91923 130.12597"
   height="2014.9578"
   width="2014.8008"
   version="1.1"
   id="svg26"
   sodipodi:docname="favicon.svg"
   inkscape:version="0.92.5 (2060ec1f9f, 2020-04-08)">
  <metadata
     id="metadata32">
    <rdf:RDF>
      <cc:Work
         rdf:about="">
        <dc:format>image/svg+xml</dc:format>
        <dc:type
           rdf:resource="http://purl.org/dc/dcmitype/StillImage" />
        <dc:title />
      </cc:Work>
    </rdf:RDF>
  </metadata>
  <defs
     id="defs30">
    <clipPath
       id="clipPath105"
       clipPathUnits="userSpaceOnUse">
      <path
         inkscape:connector-curvature="0"
         id="path103"
         d="M 0,750 H 3076.907 V 0 H 0 Z" />
    </clipPath>
    <clipPath
       id="clipPath129"
       clipPathUnits="userSpaceOnUse">
      <path
         inkscape:connector-curvature="0"
         id="path127"
         d="M 0,750 H 3076.907 V 0 H 0 Z" />
    </clipPath>
  </defs>
  <sodipodi:namedview
     pagecolor="#ffffff"
     bordercolor="#666666"
     borderopacity="1"
     objecttolerance="10"
     gridtolerance="10"
     guidetolerance="10"
     inkscape:pageopacity="0"
     inkscape:pageshadow="2"
     inkscape:window-width="1280"
     inkscape:window-height="777"
     id="namedview28"
     showgrid="false"
     inkscape:zoom="0.23046875"
     inkscape:cx="-327.06787"
     inkscape:cy="1276.0249"
     inkscape:window-x="0"
     inkscape:window-y="23"
     inkscape:window-maximized="1"
     inkscape:current-layer="svg26"
     scale-x="0.06458"
     viewbox-width="66.03"
     fit-margin-top="0"
     fit-margin-left="0"
     fit-margin-right="0"
     fit-margin-bottom="0" />
  <g
     id="g226"
     transform="matrix(0.84330371,0,0,0.84330371,200.69115,-127.59498)">
    <g
       transform="matrix(0.35277733,0,0,-0.35277733,-280.47351,360.91531)"
       id="g99">
      <g
         clip-path="url(#clipPath105)"
         id="g101">
        <g
           transform="translate(431.0645,348.793)"
           id="g107">
          <path
             inkscape:connector-curvature="0"
             id="path109"
             style="fill:#003a80;fill-opacity:1;fill-rule:nonzero;stroke:none"
             d="m 0,0 c -6.25,2.862 -11.938,7.097 -16.949,11.789 -17.145,16.057 -31.08,36.097 -49.977,50.229 -5.877,4.394 -12.436,7.589 -21.338,9.385 -9.82,1.981 -21.755,1.847 -33.204,-0.792 -5.888,-1.357 -10.738,-2.461 -16.549,-4.771 -2.731,3.771 -6.608,7.435 -9.742,10.886 -6.991,7.697 -15.341,13.373 -25.031,17.147 -16.007,6.234 -33.14,4.278 -47.731,-4.107 -1.629,-0.937 -5.154,-2.104 -5.899,-3.958 -0.14,-0.347 -23.778,-59.255 -23.778,-59.255 l -0.691,-1.146 0.282,-3.477 45.184,-105.736 114.353,-46.574 108.882,45.764 35.23,85.649 C 40.622,-1.339 27.782,-4.24 15.056,-3.745 9.75,-3.538 4.715,-2.159 0,0" />
        </g>
      </g>
    </g>
    <g
       transform="matrix(0.35277733,0,0,-0.35277733,-280.47351,360.91531)"
       id="g123">
      <g
         clip-path="url(#clipPath129)"
         id="g125">
        <g
           transform="translate(201.8956,325.8994)"
           id="g131">
          <path
             inkscape:connector-curvature="0"
             id="path133"
             style="fill:none;stroke:#003a80;stroke-width:5.29899979;stroke-linecap:butt;stroke-linejoin:miter;stroke-miterlimit:10;stroke-dasharray:none;stroke-opacity:1"
             d="m 0,0 v -0.16 l -19.128,46.189 c -0.94,2.271 -0.94,4.821 0,7.091 l 42.776,103.29 c 0.94,2.27 2.75,4.079 5.02,5.02 l 103.272,42.78 c 2.28,0.939 4.83,0.939 7.1,0 l 103.282,-42.78 c 2.269,-0.941 4.069,-2.75 5.019,-5.02 l 15.954,-38.531" />
        </g>
        <g
           transform="translate(465.1905,443.7783)"
           id="g135">
          <path
             inkscape:connector-curvature="0"
             id="path137"
             style="fill:none;stroke:#003a80;stroke-width:5.29899979;stroke-linecap:butt;stroke-linejoin:miter;stroke-miterlimit:10;stroke-dasharray:none;stroke-opacity:1"
             d="m 0,0 26.823,-64.759 c 0.94,-2.27 0.94,-4.82 0,-7.091 l -42.777,-103.29 c -0.95,-2.269 -2.75,-4.069 -5.019,-5.019 l -103.282,-42.78 c -2.27,-0.94 -4.82,-0.94 -7.1,0 l -103.272,42.78 c -2.27,0.95 -4.08,2.75 -5.02,5.019 l -25.171,60.779" />
        </g>
        <g
           transform="translate(552.1368,385.1484)"
           id="g139">
          <path
             inkscape:connector-curvature="0"
             id="path141"
             style="fill:none;stroke:#003a80;stroke-width:5.29899979;stroke-linecap:butt;stroke-linejoin:miter;stroke-miterlimit:10;stroke-dasharray:none;stroke-opacity:1"
             d="m 0,0 -2.402,8.874 c -0.681,2.516 -3.809,3.38 -5.684,1.57 l -9.41,-9.077 c -2.995,-2.889 -6.994,-4.504 -11.155,-4.504 h -8.657 c -3.751,0 -7.131,2.26 -8.567,5.725 l -40.791,98.488 c -1.436,3.465 -0.643,7.454 2.01,10.107 l 6.122,6.122 c 2.941,2.942 6.911,4.629 11.073,4.703 l 13.069,0.235 c 2.605,0.047 4.206,2.869 2.91,5.13 l -4.576,7.974 c -3.267,5.694 -7.99,10.417 -13.684,13.684 l -7.97,4.573 c -2.26,1.296 -5.082,-0.304 -5.129,-2.91 l -0.235,-13.069 c -0.075,-4.162 -1.761,-8.132 -4.704,-11.075 l -6.121,-6.122 c -2.652,-2.653 -6.64,-3.446 -10.105,-2.011 l -98.482,40.795 c -3.465,1.435 -5.724,4.817 -5.724,8.568 v 8.657 c 0,4.163 1.615,8.163 4.505,11.158 l 9.076,9.407 c 1.81,1.876 0.945,5.005 -1.57,5.685 l -8.874,2.404 c -6.336,1.716 -13.013,1.715 -19.349,-0.001 l -8.871,-2.403 c -2.515,-0.68 -3.379,-3.809 -1.569,-5.685 l 9.074,-9.404 c 2.89,-2.996 4.505,-6.997 4.505,-11.161 v -8.657 c 0,-3.751 -2.259,-7.133 -5.724,-8.568 l -98.48,-40.795 c -3.465,-1.436 -7.453,-0.642 -10.105,2.01 l -6.123,6.123 c -2.942,2.941 -4.627,6.91 -4.702,11.07 l -0.235,13.074 c -0.047,2.606 -2.87,4.207 -5.13,2.91 l -7.974,-4.576 c -5.691,-3.266 -10.412,-7.987 -13.678,-13.679 l -4.577,-7.977 c -1.297,-2.26 0.304,-5.082 2.909,-5.129 l 13.069,-0.235 c 4.161,-0.074 8.131,-1.761 11.073,-4.703 l 6.123,-6.122 c 2.652,-2.653 3.445,-6.642 2.01,-10.107 L -383.622,2.588 c -1.435,-3.465 -4.816,-5.725 -8.567,-5.725 h -8.658 c -4.161,0 -8.16,1.616 -11.155,4.505 l -9.407,9.076 c -1.875,1.81 -5.004,0.946 -5.684,-1.569 L -429.495,0 c -1.715,-6.335 -1.715,-13.013 0,-19.348 l 2.402,-8.875 c 0.68,-2.514 3.809,-3.379 5.684,-1.569 l 9.407,9.076 c 2.995,2.89 6.994,4.505 11.155,4.505 h 8.658 c 3.751,0 7.132,-2.26 8.567,-5.725 l 40.793,-98.488 c 1.435,-3.465 0.642,-7.454 -2.01,-10.106 l -6.122,-6.122 c -2.943,-2.943 -6.913,-4.629 -11.074,-4.703 l -13.068,-0.236 c -2.606,-0.046 -4.207,-2.869 -2.91,-5.13 l 4.577,-7.975 c 3.266,-5.693 7.987,-10.413 13.678,-13.68 l 7.974,-4.576 c 2.26,-1.297 5.083,0.305 5.13,2.91 l 0.235,13.075 c 0.075,4.159 1.76,8.128 4.702,11.07 l 6.123,6.123 c 2.652,2.651 6.64,3.445 10.105,2.009 l 98.48,-40.795 c 3.465,-1.435 5.724,-4.817 5.724,-8.568 v -8.661 c 0,-4.161 -1.614,-8.159 -4.503,-11.153 l -9.076,-9.408 c -1.81,-1.876 -0.946,-5.004 1.569,-5.685 l 8.871,-2.402 c 6.336,-1.716 13.013,-1.716 19.349,-10e-4 l 8.875,2.403 c 2.515,0.681 3.379,3.809 1.57,5.684 l -9.077,9.409 c -2.89,2.995 -4.505,6.995 -4.505,11.157 v 8.657 c 0,3.751 2.259,7.133 5.724,8.568 l 98.482,40.795 c 3.465,1.436 7.453,0.642 10.105,-2.01 l 6.121,-6.122 c 2.943,-2.944 4.629,-6.914 4.704,-11.076 l 0.235,-13.069 c 0.047,-2.605 2.869,-4.206 5.129,-2.909 l 7.97,4.572 c 5.694,3.268 10.417,7.99 13.684,13.685 l 4.576,7.973 c 1.296,2.261 -0.305,5.084 -2.91,5.13 l -13.069,0.236 c -4.162,0.074 -8.132,1.76 -11.073,4.703 l -6.122,6.122 c -2.653,2.652 -3.446,6.641 -2.01,10.106 l 40.791,98.488 c 1.436,3.465 4.816,5.725 8.567,5.725 h 8.656 c 4.162,0 8.162,-1.615 11.157,-4.505 l 9.409,-9.077 c 1.875,-1.809 5.003,-0.944 5.684,1.57 L 0,-19.348 C 1.715,-13.013 1.715,-6.335 0,0 Z" />
        </g>
        <g
           transform="translate(181.3023,355.3086)"
           id="g143">
          <path
             inkscape:connector-curvature="0"
             id="path145"
             style="fill:none;stroke:#ffffff;stroke-width:7;stroke-linecap:butt;stroke-linejoin:miter;stroke-miterlimit:10;stroke-dasharray:none;stroke-opacity:1"
             d="m 0,0 c 36.596,9.979 68.574,30.814 103.466,45.025 14.664,5.973 29.797,12.423 46.019,11.122 13.473,-1.08 25.955,-6.724 36.134,-15.526 17.589,-15.208 29.641,-35.792 48.111,-50.106 10.158,-7.872 20.561,-11.361 33.327,-11.028 13.571,0.355 27.048,3.01 40.34,5.572" />
        </g>
        <g
           transform="translate(467.3707,296.8643)"
           id="g147">
          <path
             inkscape:connector-curvature="0"
             id="path149"
             style="fill:none;stroke:#ffffff;stroke-width:7;stroke-linecap:butt;stroke-linejoin:miter;stroke-miterlimit:10;stroke-dasharray:none;stroke-opacity:1"
             d="m 0,0 c -19.501,-0.102 -38.043,5.558 -54.185,16.477 -15.162,10.255 -25.613,25.014 -39.894,36.036 -10.804,8.338 -26.611,12.108 -40.141,11.211 -13.019,-0.863 -25.39,-6.282 -37.228,-11.273 C -202.614,39.311 -235,29.273 -267.416,19.738" />
        </g>
        <g
           transform="translate(190.5123,416.4609)"
           id="g151">
          <path
             inkscape:connector-curvature="0"
             id="path153"
             style="fill:none;stroke:#ffffff;stroke-width:7;stroke-linecap:butt;stroke-linejoin:miter;stroke-miterlimit:10;stroke-dasharray:none;stroke-opacity:1"
             d="m 0,0 c 11.632,7.151 23.729,14.47 37.337,17.771 14.554,3.531 27.206,0.2 39.199,-8.138 12.928,-8.988 22.138,-22.094 30.747,-35.029 12.885,-19.359 21.566,-41.666 34.561,-61.163 27.956,-41.943 82.816,-47.817 129.392,-47.817" />
        </g>
      </g>
    </g>
  </g>
  <path
     style="fill:none;fill-opacity:1;fill-rule:nonzero;stroke:none;stroke-width:0.0297475"
     d="m 90.248556,50.792093 a 7.4491309,7.4491309 0 0 0 2.276219,5.363168 l -10.99201,15.469031 a 9.2505659,9.2505659 0 0 0 -4.426457,-1.121826 c -2.1211,0 -4.07851,0.713889 -5.645982,1.916274 L 66.388541,67.2424 a 11.342527,11.342527 0 0 0 2.66273,-7.318009 c 0,-6.294738 -5.123206,-11.413659 -11.417087,-11.413659 -6.292168,0 -11.414516,5.118921 -11.414516,11.413659 0,2.35335 0.717317,4.542153 1.942841,6.363299 l -8.141595,6.731814 a 9.3345529,9.3345529 0 0 0 -6.43186,-2.567602 c -5.160914,0 -9.358549,4.197635 -9.358549,9.358549 v 0.04799 L 18.539959,66.118002 a 2.7561442,2.7561442 0 0 1 0,-2.109101 L 31.266557,33.282521 A 2.7621432,2.7621432 0 0 1 32.759469,31.78961 L 63.48242,19.063011 a 2.7638573,2.7638573 0 0 1 2.111673,0 L 96.320472,31.78961 a 2.7715703,2.7715703 0 0 1 1.492912,1.492911 l 4.968086,11.99814 a 7.4474169,7.4474169 0 0 0 -5.051216,-1.970266 c -4.125646,0 -7.481698,3.356051 -7.481698,7.481698"
     id="path4"
     inkscape:connector-curvature="0" />
  <path
     style="opacity:0.89200003;vector-effect:none;fill:#fdfefb;fill-opacity:1;stroke:#003a80;stroke-width:11.59606075;stroke-linecap:butt;stroke-linejoin:miter;stroke-miterlimit:4;stroke-dasharray:none;stroke-dashoffset:0;stroke-opacity:1"
     d="m 946.9907,1980.3849 c -14.0753,-3.9708 -26.36584,-7.994 -27.31229,-8.9405 -0.94646,-0.9464 9.62799,-13.542 23.49873,-27.9901 35.541,-37.0203 40.07538,-47.8865 40.11349,-96.1283 0.0276,-33.4935 -0.76439,-39.3472 -6.75644,-50.0085 -3.73253,-6.6412 -11.16331,-14.7799 -16.51283,-18.0861 -13.58216,-8.3943 -465.85117,-195.5755 -478.10631,-197.8746 -17.87133,-3.3527 -34.01549,3.5671 -55.74444,23.8935 -37.55826,35.1339 -42.96973,47.4476 -46.52136,105.8587 l -2.2832,37.5498 -27.26072,-16.0729 c -34.46944,-20.3231 -54.39892,-40.2533 -74.71731,-74.7196 l -16.07054,-27.2608 40.92107,-1.9533 c 51.52277,-2.4595 61.54943,-6.5402 94.24263,-38.3555 26.8086,-26.0886 35.4265,-42.3474 32.6939,-61.6814 -1.66148,-11.7552 -184.30408,-455.7127 -196.51177,-477.6698 -4.25305,-7.6496 -11.64643,-14.6593 -20.22558,-19.1758 -11.80298,-6.2137 -17.87694,-7.1187 -47.7764,-7.1187 -47.35431,0 -55.82321,3.3878 -93.73011,37.4948 -16.951277,15.252 -31.575531,26.9759 -32.49834,26.0531 -4.817574,-4.8176 -16.387614,-61.5082 -16.441821,-80.5612 -0.05108,-17.95391 12.269166,-79.13676 16.868771,-83.77104 0.584255,-0.58865 13.236665,10.62458 28.116467,24.9183 37.269453,35.80148 46.226853,40.00506 88.476523,41.52095 18.83699,0.67588 39.26522,-0.25618 46.12958,-2.10445 25.5234,-6.87275 25.08202,-5.99457 129.05634,-256.77381 53.00581,-127.84654 97.19787,-237.5992 98.20459,-243.89484 3.07441,-19.22646 -3.86038,-32.99848 -30.28877,-60.15132 -33.21193,-34.12233 -43.72795,-38.56359 -96.49675,-40.75383 l -40.49076,-1.6806 15.81835,-27.61312 c 19.81316,-34.58663 39.26974,-54.22111 73.8889,-74.56451 14.92397,-8.76984 27.50037,-15.94515 27.94755,-15.94515 0.44717,0 1.78365,18.29369 2.96991,40.65264 1.72895,32.58717 3.54289,43.7078 9.14283,56.05166 8.53349,18.81027 37.84957,51.10477 56.1012,61.80095 26.4935,15.52621 18.21681,18.18754 277.03785,-89.07998 159.43186,-66.076 237.49909,-99.92254 243.52673,-105.58255 14.4181,-13.53873 17.32333,-24.33038 17.29026,-64.22525 -0.0387,-46.61088 -5.23582,-58.79232 -40.49608,-94.916818 -14.60753,-14.965555 -23.86037,-26.731027 -22.18196,-28.205443 1.58377,-1.391279 14.61517,-5.662852 28.95865,-9.492384 40.97164,-10.938917 76.04106,-9.154401 125.08526,6.364993 l 10.0306,3.17405 -27.6022,30.354429 c -15.1812,16.694935 -29.8769,35.563093 -32.6572,41.929233 -6.445,14.75762 -9.3823,71.07235 -4.6235,88.64441 4.3782,16.16673 13.326,27.45786 27.4827,34.68009 19.402,9.89811 458.6493,191.23808 469.009,193.62683 20.7438,4.78311 36.5432,-2.00078 62.5692,-26.86591 15.8957,-15.18669 27.0104,-28.93278 32.6042,-40.32353 7.7285,-15.73733 8.5826,-20.91592 9.5552,-57.93478 0.5874,-22.35895 1.7597,-40.65264 2.6052,-40.65264 7.0436,0 60.7893,36.33861 73.2266,49.51009 13.304,14.0893 37.4511,50.61143 42.9682,64.98872 1.4178,3.69482 -5.1234,4.65229 -39.1401,5.72932 -33.4593,1.05933 -43.5167,2.49761 -55.6367,7.95635 -17.754,7.99621 -55.493,43.4872 -64.0814,60.26416 -12.3948,24.2126 -11.859,25.82008 92.0718,276.22241 52.4952,126.47772 98.0051,233.47855 101.1329,237.77964 3.1279,4.30105 11.8192,11.01152 19.314,14.91215 12.4563,6.4828 16.7898,7.00106 50.4445,6.03283 46.8532,-1.34798 55.7446,-5.23386 92.9164,-40.60764 18.2611,-17.37777 28.7286,-25.38729 29.662,-22.69682 0.7933,2.28673 4.4969,15.89328 8.2301,30.23676 10.677,41.02291 8.7458,75.48735 -7.0194,125.26975 l -3.2349,10.2151 -26.5278,-25.9042 c -37.6485,-36.7636 -45.058,-40.0736 -92.9312,-41.5141 -43.8298,-1.3188 -55.2569,1.8625 -69.1265,19.2448 -4.2494,5.3255 -51.0844,114.3919 -104.0779,242.3697 -107.4977,259.604 -104.7916,251.0253 -87.689,277.9933 10.2213,16.1174 42.8299,46.4333 57.3625,53.3295 15.3574,7.2876 38.9298,10.9154 70.9251,10.9154 15.8006,0 28.7284,0.7547 28.7284,1.677 0,0.9224 -6.3665,12.7147 -14.1479,26.2053 -20.0846,34.8208 -38.5366,53.5849 -72.8997,74.1328 -16.2266,9.703 -30.0452,17.6417 -30.7079,17.6417 -0.6628,0 -1.7828,-18.984 -2.4891,-42.1867 -1.1579,-38.0384 -2.0676,-43.6951 -9.2518,-57.5273 -4.3822,-8.4373 -18.8534,-25.9081 -32.1583,-38.8239 -25.9733,-25.2138 -41.3829,-32.5112 -60.274,-28.5431 -5.3431,1.1223 -114.6433,45.4588 -242.8894,98.5255 -155.802,64.4691 -235.9572,99.1509 -241.5603,104.519 -14.7019,14.0853 -18.6535,30.0519 -17.0884,69.0466 1.7304,43.112 5.8101,51.9191 41.4063,89.3878 14.2046,14.9518 25.1729,27.8388 24.374,28.6377 -0.799,0.799 -14.3379,4.7607 -30.0866,8.8039 -37.7848,9.7006 -71.55507,9.6425 -106.3835,-0.1829 z m 315.328,-347.014 c 190.0757,-78.7283 245.8243,-103.0331 253.2997,-110.4313 5.6774,-5.6189 14.7388,-21.8791 22.2272,-39.8856 l 12.6424,-30.3997 -56.5454,-2.13 c -176.8525,-6.6622 -311.7283,-41.8047 -408.2611,-106.3744 -68.1784,-45.6038 -111.35934,-96.4278 -165.25744,-194.5081 -11.81228,-21.4952 -23.12295,-39.0825 -25.13481,-39.0828 -2.01187,-3e-4 -27.554,9.8068 -56.76031,21.7936 -125.32186,51.4342 -228.54519,88.0092 -371.85973,131.7606 -43.69402,13.339 -80.06572,24.8748 -80.826,25.635 -1.19132,1.1913 21.42628,57.0357 78.06631,192.7507 9.41353,22.5558 16.84054,35.6386 23.60185,41.5751 6.01021,5.277 45.16853,23.2902 100.19838,46.0923 49.68287,20.5864 160.05561,66.4528 245.27276,101.9254 143.04771,59.5451 156.11777,64.4084 170.28089,63.36 11.5444,-0.8545 75.6518,-26.1161 259.0553,-102.0808 z m 306.8756,-225.9714 c 3.749,-8.8592 7.4568,-17.6365 8.2397,-19.5051 0.9297,-2.2192 -6.8789,-4.1425 -22.515,-5.5456 -52.5129,-4.7125 -111.7064,-21.7973 -160.6145,-46.3575 -50.9001,-25.5605 -79.336,-47.6076 -149.8606,-116.1909 -36.8186,-35.8051 -75.4373,-71.4855 -85.8193,-79.2897 -41.1617,-30.9419 -95.5169,-48.5036 -152.2931,-49.2047 -32.36539,-0.3996 -78.23713,5.2466 -78.23713,9.63 0,4.5086 41.61011,77.1485 59.9964,104.7375 64.82163,97.2659 166.13203,160.6342 306.60223,191.7756 65.6146,14.5463 155.3053,24.0048 242.782,25.6031 l 24.903,0.455 z m 33.4627,-81.3053 c 45.0985,-107.7385 54.391,-131.2713 52.1839,-132.1534 -1.3637,-0.5451 -20.8159,2.1092 -43.227,5.8984 -31.4622,5.3196 -53.6817,6.9437 -97.5078,7.1274 -51.3208,0.2151 -58.9655,-0.4508 -79.7712,-6.9473 -64.721,-20.2091 -112.2972,-59.0546 -205.3885,-167.698 -96.2281,-112.30421 -140.1566,-146.83927 -213.4105,-167.77581 -31.5253,-9.01019 -92.59512,-9.88525 -125.79309,-1.80246 -18.51824,4.50867 -62.42077,18.60667 -78.89166,25.33369 -4.51517,1.84409 -2.74726,5.89365 12.53286,28.70795 22.85734,34.1276 43.67168,69.58309 69.42232,118.25503 16.51026,31.2064 21.64614,38.5756 25.93596,37.2141 17.96709,-5.7025 57.04377,-10.7853 82.91801,-10.7853 33.6989,0 68.5843,5.7415 100.1797,16.4878 49.5706,16.86 71.4023,32.8281 152.4789,111.5253 74.4937,72.3076 103.7845,95.3975 150.7845,118.8636 52.1325,26.0286 107.849,41.4951 164.229,45.5887 7.5936,0.5514 15.3807,1.2437 17.3046,1.5385 1.924,0.2948 9.133,-12.9254 16.02,-29.3782 z M 438.18931,1242.208 c 141.64874,-42.7648 258.12971,-83.3742 362.68221,-126.4441 30.31706,-12.4889 61.65525,-25.1603 69.64044,-28.1587 l 14.51852,-5.4515 -14.19161,-26.4502 c -36.53571,-68.09526 -84.90574,-147.18985 -93.11684,-152.26459 -4.13212,-2.55379 -61.61714,23.06401 -170.24666,75.86925 -156.3359,75.99544 -208.53614,98.94254 -273.85111,120.38384 -13.93319,4.574 -24.79616,9.2352 -24.13995,10.3584 0.6562,1.1232 13.94583,33.1069 29.53248,71.0749 29.98902,73.0513 32.9894,79.7713 35.61688,79.7713 0.90964,0 29.50968,-8.4099 63.55564,-18.6886 z m 1108.13209,-64.3607 c 42.2336,-3.6877 120.8181,-16.5987 124.7083,-20.4889 1.4417,-1.4418 15.0467,-32.5544 30.2333,-69.1391 21.1453,-50.9396 27.6118,-69.8269 27.6118,-80.6485 0,-11.56486 -18.1407,-57.95727 -99.8998,-255.48075 -54.9449,-132.74243 -102.2324,-245.34753 -105.0833,-250.23355 -2.8509,-4.88602 -8.635,-11.4279 -12.8537,-14.53754 -4.2187,-3.10964 -118.0733,-51.3782 -253.0102,-107.26347 C 1025.6191,283.80148 1011.8735,278.51953 997.23722,279.8432 986.01617,280.85801 916.27448,308.3737 742.47284,380.35727 610.85031,434.87146 498.6436,482.80403 493.12463,486.87402 c -5.519,4.07002 -12.07006,10.50664 -14.55794,14.3036 -5.01921,7.6603 -115.37808,272.539 -114.08796,273.82911 0.44641,0.44641 17.2963,-7.44855 37.44422,-17.54439 42.17916,-21.13536 83.5507,-34.92419 120.14538,-40.04354 56.59113,-7.91668 117.36315,10.47796 172.84859,52.31831 19.86319,14.97839 62.53951,57.42672 82.88384,82.44108 l 10.69395,13.14869 23.59292,-9.16703 c 99.06357,-38.49128 180.0496,-38.97439 259.75307,-1.5495 54.9416,25.79796 91.6786,57.81083 168.7268,147.02975 112.4894,130.2584 160.6994,166.66 233.653,176.4225 24.9052,3.3328 31.6978,3.3125 72.1009,-0.2153 z M 338.0461,1067.2014 c 56.54989,-19.7732 112.79858,-44.7251 237.21397,-105.22811 63.28006,-30.77295 130.52331,-62.62208 149.42947,-70.77583 l 34.37483,-14.82499 -8.7382,-11.00119 c -20.76586,-26.1438 -48.32363,-53.55991 -71.04985,-70.68462 -81.73452,-61.58882 -155.1054,-64.84125 -262.02466,-11.61524 -46.58627,23.19134 -71.96282,39.1072 -76.46502,47.95785 -11.98379,23.55844 -67.04927,161.83024 -68.37061,171.68153 -1.1782,8.7841 1.51693,19.3807 11.281,44.354 7.05597,18.0468 14.01438,32.8124 15.46314,32.8124 1.44875,0 18.94742,-5.7041 38.88593,-12.6758 z"
     id="path30"
     inkscape:connector-curvature="0"
     transform="matrix(0.06458,0,0,0.06458,-0.09830104,0)" />
</svg>
