<svg xmlns="http://www.w3.org/2000/svg" viewBox="0 0 129.919 130.126" height="2014.958" width="2014.801"><defs><clipPath id="a" clipPathUnits="userSpaceOnUse"><path d="M0 750h3076.907V0H0Z"/></clipPath><clipPath id="b" clipPathUnits="userSpaceOnUse"><path d="M0 750h3076.907V0H0Z"/></clipPath></defs><g clip-path="url(#a)" transform="matrix(.2975 0 0 -.2975 -35.833 176.766)"><path style="fill:#003a80;fill-opacity:1;fill-rule:nonzero;stroke:none" d="M0 0c-6.25 2.862-11.938 7.097-16.949 11.789-17.145 16.057-31.08 36.097-49.977 50.229-5.877 4.394-12.436 7.589-21.338 9.385-9.82 1.981-21.755 1.847-33.204-.792-5.888-1.357-10.738-2.461-16.549-4.771-2.731 3.771-6.608 7.435-9.742 10.886-6.991 7.697-15.341 13.373-25.031 17.147-16.007 6.234-33.14 4.278-47.731-4.107-1.629-.937-5.154-2.104-5.899-3.958l-23.778-59.255-.691-1.146.282-3.477 45.184-105.736L-91.07-130.38 17.812-84.616l35.23 85.649c-12.42-2.372-25.26-5.273-37.986-4.778C9.75-3.538 4.715-2.159 0 0" transform="translate(431.065 348.793)"/></g><g clip-path="url(#b)" transform="matrix(.2975 0 0 -.2975 -35.833 176.766)"><path style="fill:none;stroke:#003a80;stroke-width:5.29899979;stroke-linecap:butt;stroke-linejoin:miter;stroke-miterlimit:10;stroke-dasharray:none;stroke-opacity:1" d="M0 0v-.16l-19.128 46.189a9.268 9.268 0 0 0 0 7.091l42.776 103.29a9.288 9.288 0 0 0 5.02 5.02l103.272 42.78a9.3 9.3 0 0 0 7.1 0l103.282-42.78a9.322 9.322 0 0 0 5.019-5.02l15.954-38.531" transform="translate(201.896 325.9)"/><path style="fill:none;stroke:#003a80;stroke-width:5.29899979;stroke-linecap:butt;stroke-linejoin:miter;stroke-miterlimit:10;stroke-dasharray:none;stroke-opacity:1" d="m0 0 26.823-64.759c.94-2.27.94-4.82 0-7.091l-42.777-103.29a9.353 9.353 0 0 0-5.019-5.019l-103.282-42.78a9.29 9.29 0 0 0-7.1 0l-103.272 42.78a9.319 9.319 0 0 0-5.02 5.019l-25.171 60.779" transform="translate(465.19 443.778)"/><path style="fill:none;stroke:#003a80;stroke-width:5.29899979;stroke-linecap:butt;stroke-linejoin:miter;stroke-miterlimit:10;stroke-dasharray:none;stroke-opacity:1" d="m0 0-2.402 8.874c-.681 2.516-3.809 3.38-5.684 1.57l-9.41-9.077a16.068 16.068 0 0 0-11.155-4.504h-8.657a9.274 9.274 0 0 0-8.567 5.725l-40.791 98.488a9.273 9.273 0 0 0 2.01 10.107l6.122 6.122a16.061 16.061 0 0 0 11.073 4.703l13.069.235c2.605.047 4.206 2.869 2.91 5.13l-4.576 7.974a37.014 37.014 0 0 1-13.684 13.684l-7.97 4.573c-2.26 1.296-5.082-.304-5.129-2.91l-.235-13.069a16.07 16.07 0 0 0-4.704-11.075l-6.121-6.122a9.271 9.271 0 0 0-10.105-2.011l-98.482 40.795a9.273 9.273 0 0 0-5.724 8.568v8.657c0 4.163 1.615 8.163 4.505 11.158l9.076 9.407c1.81 1.876.945 5.005-1.57 5.685l-8.874 2.404a37.006 37.006 0 0 1-19.349-.001l-8.871-2.403c-2.515-.68-3.379-3.809-1.569-5.685l9.074-9.404a16.076 16.076 0 0 0 4.505-11.161v-8.657a9.273 9.273 0 0 0-5.724-8.568l-98.48-40.795a9.27 9.27 0 0 0-10.105 2.01l-6.123 6.123a16.061 16.061 0 0 0-4.702 11.07l-.235 13.074c-.047 2.606-2.87 4.207-5.13 2.91l-7.974-4.576a37.007 37.007 0 0 1-13.678-13.679l-4.577-7.977c-1.297-2.26.304-5.082 2.909-5.129l13.069-.235a16.065 16.065 0 0 0 11.073-4.703l6.123-6.122a9.276 9.276 0 0 0 2.01-10.107l-40.793-98.488a9.273 9.273 0 0 0-8.567-5.725h-8.658a16.07 16.07 0 0 0-11.155 4.505l-9.407 9.076c-1.875 1.81-5.004.946-5.684-1.569L-429.495 0a37.023 37.023 0 0 1 0-19.348l2.402-8.875c.68-2.514 3.809-3.379 5.684-1.569l9.407 9.076a16.065 16.065 0 0 0 11.155 4.505h8.658a9.273 9.273 0 0 0 8.567-5.725l40.793-98.488a9.274 9.274 0 0 0-2.01-10.106l-6.122-6.122a16.065 16.065 0 0 0-11.074-4.703l-13.068-.236c-2.606-.046-4.207-2.869-2.91-5.13l4.577-7.975a37.01 37.01 0 0 1 13.678-13.68l7.974-4.576c2.26-1.297 5.083.305 5.13 2.91l.235 13.075a16.065 16.065 0 0 0 4.702 11.07l6.123 6.123a9.272 9.272 0 0 0 10.105 2.009l98.48-40.795a9.273 9.273 0 0 0 5.724-8.568v-8.661a16.06 16.06 0 0 0-4.503-11.153l-9.076-9.408c-1.81-1.876-.946-5.004 1.569-5.685l8.871-2.402a37.016 37.016 0 0 1 19.349-.001l8.875 2.403c2.515.681 3.379 3.809 1.57 5.684l-9.077 9.409a16.068 16.068 0 0 0-4.505 11.157v8.657a9.273 9.273 0 0 0 5.724 8.568l98.482 40.795a9.27 9.27 0 0 0 10.105-2.01l6.121-6.122a16.075 16.075 0 0 0 4.704-11.076l.235-13.069c.047-2.605 2.869-4.206 5.129-2.909l7.97 4.572a37.017 37.017 0 0 1 13.684 13.685l4.576 7.973c1.296 2.261-.305 5.084-2.91 5.13l-13.069.236a16.057 16.057 0 0 0-11.073 4.703l-6.122 6.122a9.27 9.27 0 0 0-2.01 10.106l40.791 98.488a9.274 9.274 0 0 0 8.567 5.725h8.656c4.162 0 8.162-1.615 11.157-4.505l9.409-9.077c1.875-1.809 5.003-.944 5.684 1.57L0-19.348A37.023 37.023 0 0 1 0 0Z" transform="translate(552.137 385.148)"/><path style="fill:none;stroke:#fff;stroke-width:7;stroke-linecap:butt;stroke-linejoin:miter;stroke-miterlimit:10;stroke-dasharray:none;stroke-opacity:1" d="M0 0c36.596 9.979 68.574 30.814 103.466 45.025 14.664 5.973 29.797 12.423 46.019 11.122 13.473-1.08 25.955-6.724 36.134-15.526C203.208 25.413 215.26 4.829 233.73-9.485c10.158-7.872 20.561-11.361 33.327-11.028 13.571.355 27.048 3.01 40.34 5.572" transform="translate(181.302 355.309)"/><path style="fill:none;stroke:#fff;stroke-width:7;stroke-linecap:butt;stroke-linejoin:miter;stroke-miterlimit:10;stroke-dasharray:none;stroke-opacity:1" d="M0 0c-19.501-.102-38.043 5.558-54.185 16.477-15.162 10.255-25.613 25.014-39.894 36.036-10.804 8.338-26.611 12.108-40.141 11.211-13.019-.863-25.39-6.282-37.228-11.273-31.166-13.14-63.552-23.178-95.968-32.713" transform="translate(467.37 296.864)"/><path style="fill:none;stroke:#fff;stroke-width:7;stroke-linecap:butt;stroke-linejoin:miter;stroke-miterlimit:10;stroke-dasharray:none;stroke-opacity:1" d="M0 0c11.632 7.151 23.729 14.47 37.337 17.771 14.554 3.531 27.206.2 39.199-8.138C89.464.645 98.674-12.461 107.283-25.396c12.885-19.359 21.566-41.666 34.561-61.163 27.956-41.943 82.816-47.817 129.392-47.817" transform="translate(190.512 416.46)"/></g><path style="fill:none;fill-opacity:1;fill-rule:nonzero;stroke:none;stroke-width:.0297475" d="M90.249 50.792a7.45 7.45 0 0 0 2.276 5.363l-10.992 15.47a9.25 9.25 0 0 0-4.427-1.123 9.245 9.245 0 0 0-5.646 1.917l-5.071-5.177a11.343 11.343 0 0 0 2.662-7.318c0-6.294-5.123-11.413-11.417-11.413-6.292 0-11.414 5.119-11.414 11.413 0 2.354.717 4.543 1.943 6.364L40.02 73.02a9.335 9.335 0 0 0-6.432-2.568c-5.16 0-9.358 4.198-9.358 9.358v.048l-5.691-13.74a2.756 2.756 0 0 1 0-2.11l12.727-30.725a2.762 2.762 0 0 1 1.492-1.493l30.723-12.727a2.764 2.764 0 0 1 2.112 0L96.32 31.79a2.772 2.772 0 0 1 1.493 1.493l4.968 11.998a7.447 7.447 0 0 0-5.05-1.97c-4.126 0-7.482 3.355-7.482 7.481"/><path style="opacity:.89200003;vector-effect:none;fill:#fdfefb;fill-opacity:1;stroke:#003a80;stroke-width:11.59606075;stroke-linecap:butt;stroke-linejoin:miter;stroke-miterlimit:4;stroke-dasharray:none;stroke-dashoffset:0;stroke-opacity:1" d="M946.99 1980.385c-14.075-3.97-26.365-7.994-27.312-8.94-.946-.947 9.628-13.543 23.5-27.99 35.54-37.021 40.075-47.887 40.113-96.129.027-33.493-.765-39.347-6.757-50.008-3.732-6.642-11.163-14.78-16.513-18.087-13.582-8.394-465.85-195.575-478.106-197.874-17.871-3.353-34.015 3.567-55.744 23.893-37.559 35.134-42.97 47.448-46.522 105.859l-2.283 37.55-27.26-16.073c-34.47-20.323-54.4-40.253-74.718-74.72l-16.07-27.26 40.92-1.954c51.523-2.46 61.55-6.54 94.243-38.355 26.809-26.089 35.427-42.348 32.694-61.682-1.661-11.755-184.304-455.712-196.512-477.67-4.253-7.65-11.646-14.659-20.225-19.175-11.803-6.214-17.877-7.119-47.777-7.119-47.354 0-55.823 3.388-93.73 37.495-16.951 15.252-31.575 26.976-32.498 26.053-4.818-4.818-16.388-61.508-16.442-80.561-.051-17.954 12.27-79.137 16.869-83.771.584-.589 13.236 10.624 28.116 24.918 37.27 35.801 46.227 40.005 88.477 41.52 18.837.677 39.265-.255 46.13-2.104 25.523-6.872 25.081-5.994 129.056-256.773 53.006-127.847 97.198-237.6 98.204-243.895 3.075-19.227-3.86-32.999-30.288-60.152-33.212-34.122-43.728-38.563-96.497-40.753l-40.491-1.68 15.818-27.614c19.814-34.587 39.27-54.221 73.89-74.565 14.923-8.77 27.5-15.945 27.947-15.945.447 0 1.783 18.294 2.97 40.653 1.729 32.587 3.543 43.708 9.143 56.052 8.533 18.81 37.85 51.104 56.1 61.8 26.494 15.527 18.218 18.188 277.039-89.08C881.905 270.175 959.973 236.328 966 230.668c14.418-13.539 17.324-24.33 17.29-64.225-.038-46.611-5.235-58.793-40.495-94.917-14.608-14.966-23.86-26.731-22.182-28.206 1.583-1.39 14.615-5.662 28.958-9.492 40.972-10.939 76.041-9.154 125.085 6.365l10.031 3.174-27.602 30.355c-15.181 16.695-29.877 35.563-32.657 41.929-6.445 14.757-9.383 71.072-4.624 88.644 4.378 16.167 13.326 27.458 27.483 34.68 19.402 9.898 458.65 191.238 469.009 193.627 20.744 4.783 36.543-2 62.57-26.866 15.895-15.186 27.01-28.933 32.603-40.323 7.729-15.738 8.583-20.916 9.555-57.935.588-22.359 1.76-40.653 2.606-40.653 7.043 0 60.789 36.339 73.226 49.51 13.304 14.09 37.451 50.612 42.968 64.99 1.418 3.694-5.123 4.651-39.14 5.728-33.459 1.06-43.516 2.498-55.636 7.957-17.754 7.996-55.493 43.487-64.082 60.264-12.395 24.213-11.859 25.82 92.072 276.222 52.495 126.478 98.005 233.479 101.133 237.78 3.128 4.301 11.82 11.011 19.314 14.912 12.456 6.483 16.79 7.001 50.444 6.033 46.854-1.348 55.745-5.234 92.917-40.608 18.261-17.377 28.728-25.387 29.662-22.697.793 2.287 4.497 15.894 8.23 30.237 10.677 41.023 8.746 75.488-7.02 125.27l-3.234 10.215-26.528-25.904c-37.649-36.764-45.058-40.074-92.931-41.514-43.83-1.319-55.257 1.862-69.127 19.245-4.25 5.325-51.084 114.392-104.078 242.37-107.497 259.603-104.791 251.025-87.689 277.993 10.222 16.117 42.83 46.433 57.363 53.33 15.357 7.287 38.93 10.914 70.925 10.914 15.8 0 28.728.755 28.728 1.678 0 .922-6.366 12.714-14.148 26.205-20.084 34.82-38.536 53.585-72.9 74.133-16.226 9.703-30.045 17.641-30.707 17.641-.663 0-1.783-18.984-2.49-42.186-1.157-38.039-2.067-43.695-9.251-57.528-4.382-8.437-18.854-25.908-32.158-38.824-25.974-25.213-41.383-32.51-60.274-28.543-5.344 1.123-114.644 45.46-242.89 98.526-155.802 64.469-235.957 99.15-241.56 104.519-14.702 14.085-18.654 30.052-17.089 69.046 1.73 43.112 5.81 51.92 41.407 89.388 14.204 14.952 25.173 27.839 24.374 28.638-.8.799-14.338 4.76-30.087 8.804-37.785 9.7-71.555 9.642-106.383-.183zm315.329-347.014c190.075-78.728 245.824-103.033 253.3-110.431 5.677-5.62 14.738-21.88 22.227-39.886l12.642-30.4-56.545-2.13c-176.853-6.662-311.729-41.804-408.262-106.374-68.178-45.604-111.359-96.428-165.257-194.508-11.812-21.495-23.123-39.083-25.135-39.083-2.012 0-27.554 9.807-56.76 21.794-125.322 51.434-228.545 88.009-371.86 131.76-43.694 13.34-80.066 24.875-80.826 25.635-1.191 1.191 21.426 57.036 78.067 192.75 9.413 22.557 16.84 35.64 23.601 41.576 6.01 5.277 45.169 23.29 100.199 46.092 49.683 20.587 160.055 66.453 245.273 101.926 143.047 59.545 156.117 64.408 170.28 63.36 11.545-.855 75.652-26.116 259.056-102.081zm306.875-225.972c3.75-8.859 7.457-17.636 8.24-19.505.93-2.219-6.879-4.142-22.515-5.545-52.513-4.713-111.706-21.797-160.615-46.358-50.9-25.56-79.336-47.607-149.86-116.19-36.819-35.806-75.437-71.486-85.82-79.29-41.161-30.942-95.516-48.504-152.292-49.205-32.366-.4-78.238 5.247-78.238 9.63 0 4.509 41.61 77.148 59.997 104.737 64.821 97.266 166.132 160.635 306.602 191.776 65.615 14.546 155.305 24.005 242.782 25.603l24.903.455zm33.463-81.305c45.099-107.738 54.391-131.271 52.184-132.153-1.364-.545-20.816 2.109-43.227 5.898-31.462 5.32-53.682 6.944-97.508 7.128-51.32.215-58.965-.451-79.771-6.948-64.721-20.209-112.297-59.054-205.389-167.698-96.228-112.304-140.156-146.839-213.41-167.776-31.525-9.01-92.595-9.885-125.793-1.802-18.518 4.509-62.421 18.607-78.892 25.334-4.515 1.844-2.747 5.893 12.533 28.708 22.857 34.127 43.672 69.583 69.422 118.255 16.51 31.206 21.646 38.575 25.936 37.214 17.967-5.703 57.044-10.785 82.918-10.785 33.7 0 68.585 5.741 100.18 16.487 49.57 16.86 71.402 32.828 152.479 111.526 74.494 72.307 103.784 95.397 150.784 118.863 52.133 26.029 107.85 41.495 164.23 45.589 7.593.551 15.38 1.244 17.304 1.538 1.924.295 9.133-12.925 16.02-29.378zm-1164.468-83.886c141.649-42.765 258.13-83.374 362.683-126.444 30.317-12.489 61.655-25.16 69.64-28.159l14.518-5.451-14.191-26.45c-36.536-68.096-84.906-147.19-93.117-152.265-4.132-2.554-61.617 23.064-170.247 75.87-156.336 75.995-208.536 98.942-273.85 120.383-13.934 4.574-24.797 9.235-24.14 10.358.656 1.124 13.945 33.107 29.532 71.075 29.989 73.052 32.99 79.772 35.617 79.772.91 0 29.51-8.41 63.555-18.689zm1108.132-64.36c42.234-3.688 120.819-16.6 124.709-20.49 1.441-1.441 15.046-32.554 30.233-69.139 21.145-50.94 27.612-69.827 27.612-80.648 0-11.565-18.14-57.957-99.9-255.481-54.945-132.742-102.232-245.347-105.083-250.234-2.851-4.886-8.635-11.427-12.854-14.537-4.219-3.11-118.073-51.378-253.01-107.264-232.409-96.254-246.154-101.535-260.79-100.212-11.222 1.015-80.964 28.53-254.765 100.514-131.623 54.514-243.83 102.447-249.348 106.517-5.52 4.07-12.07 10.507-14.558 14.304-5.02 7.66-115.378 272.539-114.088 273.829.446.446 17.296-7.449 37.444-17.545 42.18-21.135 83.55-34.924 120.145-40.043 56.591-7.917 117.363 10.478 172.849 52.318 19.863 14.979 62.54 57.427 82.884 82.441l10.694 13.149 23.593-9.167c99.063-38.491 180.05-38.975 259.753-1.55 54.941 25.798 91.678 57.811 168.727 147.03 112.489 130.259 160.699 166.66 233.653 176.423 24.905 3.332 31.697 3.312 72.1-.216zM338.046 1067.2c56.55-19.773 112.799-44.725 237.214-105.228 63.28-30.773 130.523-62.622 149.43-70.776l34.374-14.825-8.738-11c-20.766-26.145-48.323-53.56-71.05-70.685-81.734-61.59-155.105-64.842-262.024-11.616-46.587 23.192-71.963 39.108-76.465 47.958-11.984 23.559-67.05 161.83-68.371 171.682-1.178 8.784 1.517 19.38 11.281 44.354 7.056 18.047 14.014 32.812 15.463 32.812 1.449 0 18.948-5.704 38.886-12.676z" transform="translate(-.098) scale(.06458)"/></svg>