<?xml version="1.0" encoding="UTF-8" standalone="no"?>
<svg
   xmlns:dc="http://purl.org/dc/elements/1.1/"
   xmlns:cc="http://creativecommons.org/ns#"
   xmlns:rdf="http://www.w3.org/1999/02/22-rdf-syntax-ns#"
   xmlns:svg="http://www.w3.org/2000/svg"
   xmlns="http://www.w3.org/2000/svg"
   xmlns:sodipodi="http://sodipodi.sourceforge.net/DTD/sodipodi-0.dtd"
   xmlns:inkscape="http://www.inkscape.org/namespaces/inkscape"
   viewBox="0 0 685.05445 282.01339"
   height="4366.8843"
   width="10623.895"
   version="1.1"
   id="svg26"
   sodipodi:docname="favicon.svg"
   inkscape:version="0.92.5 (2060ec1f9f, 2020-04-08)">
  <metadata
     id="metadata32">
    <rdf:RDF>
      <cc:Work
         rdf:about="">
        <dc:format>image/svg+xml</dc:format>
        <dc:type
           rdf:resource="http://purl.org/dc/dcmitype/StillImage" />
        <dc:title></dc:title>
      </cc:Work>
    </rdf:RDF>
  </metadata>
  <defs
     id="defs30">
    <clipPath
       id="clipPath105"
       clipPathUnits="userSpaceOnUse">
      <path
         inkscape:connector-curvature="0"
         id="path103"
         d="M 0,750 H 3076.907 V 0 H 0 Z" />
    </clipPath>
    <clipPath
       id="clipPath129"
       clipPathUnits="userSpaceOnUse">
      <path
         inkscape:connector-curvature="0"
         id="path127"
         d="M 0,750 H 3076.907 V 0 H 0 Z" />
    </clipPath>
  </defs>
  <sodipodi:namedview
     pagecolor="#ffffff"
     bordercolor="#666666"
     borderopacity="1"
     objecttolerance="10"
     gridtolerance="10"
     guidetolerance="10"
     inkscape:pageopacity="0"
     inkscape:pageshadow="2"
     inkscape:window-width="1280"
     inkscape:window-height="777"
     id="namedview28"
     showgrid="false"
     inkscape:zoom="0.4609375"
     inkscape:cx="-657.65263"
     inkscape:cy="4033.7511"
     inkscape:window-x="0"
     inkscape:window-y="23"
     inkscape:window-maximized="1"
     inkscape:current-layer="svg26"
     scale-x="0.06458"
     viewbox-width="66.03"
     fit-margin-top="0"
     fit-margin-left="0"
     fit-margin-right="0"
     fit-margin-bottom="0" />
  <g
     id="g226"
     transform="matrix(0.84330371,0,0,0.84330371,201.15952,-127.59498)">
    <g
       transform="matrix(0.35277733,0,0,-0.35277733,-280.47351,360.91531)"
       id="g99">
      <g
         clip-path="url(#clipPath105)"
         id="g101">
        <g
           transform="translate(431.0645,348.793)"
           id="g107">
          <path
             inkscape:connector-curvature="0"
             id="path109"
             style="fill:#003a80;fill-opacity:1;fill-rule:nonzero;stroke:none"
             d="m 0,0 c -6.25,2.862 -11.938,7.097 -16.949,11.789 -17.145,16.057 -31.08,36.097 -49.977,50.229 -5.877,4.394 -12.436,7.589 -21.338,9.385 -9.82,1.981 -21.755,1.847 -33.204,-0.792 -5.888,-1.357 -10.738,-2.461 -16.549,-4.771 -2.731,3.771 -6.608,7.435 -9.742,10.886 -6.991,7.697 -15.341,13.373 -25.031,17.147 -16.007,6.234 -33.14,4.278 -47.731,-4.107 -1.629,-0.937 -5.154,-2.104 -5.899,-3.958 -0.14,-0.347 -23.778,-59.255 -23.778,-59.255 l -0.691,-1.146 0.282,-3.477 45.184,-105.736 114.353,-46.574 108.882,45.764 35.23,85.649 C 40.622,-1.339 27.782,-4.24 15.056,-3.745 9.75,-3.538 4.715,-2.159 0,0" />
        </g>
      </g>
    </g>
    <g
       transform="matrix(0.35277733,0,0,-0.35277733,-280.47351,360.91531)"
       id="g123">
      <g
         clip-path="url(#clipPath129)"
         id="g125">
        <g
           transform="translate(201.8956,325.8994)"
           id="g131">
          <path
             inkscape:connector-curvature="0"
             id="path133"
             style="fill:none;stroke:#003a80;stroke-width:5.29899979;stroke-linecap:butt;stroke-linejoin:miter;stroke-miterlimit:10;stroke-dasharray:none;stroke-opacity:1"
             d="m 0,0 v -0.16 l -19.128,46.189 c -0.94,2.271 -0.94,4.821 0,7.091 l 42.776,103.29 c 0.94,2.27 2.75,4.079 5.02,5.02 l 103.272,42.78 c 2.28,0.939 4.83,0.939 7.1,0 l 103.282,-42.78 c 2.269,-0.941 4.069,-2.75 5.019,-5.02 l 15.954,-38.531" />
        </g>
        <g
           transform="translate(465.1905,443.7783)"
           id="g135">
          <path
             inkscape:connector-curvature="0"
             id="path137"
             style="fill:none;stroke:#003a80;stroke-width:5.29899979;stroke-linecap:butt;stroke-linejoin:miter;stroke-miterlimit:10;stroke-dasharray:none;stroke-opacity:1"
             d="m 0,0 26.823,-64.759 c 0.94,-2.27 0.94,-4.82 0,-7.091 l -42.777,-103.29 c -0.95,-2.269 -2.75,-4.069 -5.019,-5.019 l -103.282,-42.78 c -2.27,-0.94 -4.82,-0.94 -7.1,0 l -103.272,42.78 c -2.27,0.95 -4.08,2.75 -5.02,5.019 l -25.171,60.779" />
        </g>
        <g
           transform="translate(552.1368,385.1484)"
           id="g139">
          <path
             inkscape:connector-curvature="0"
             id="path141"
             style="fill:none;stroke:#003a80;stroke-width:5.29899979;stroke-linecap:butt;stroke-linejoin:miter;stroke-miterlimit:10;stroke-dasharray:none;stroke-opacity:1"
             d="m 0,0 -2.402,8.874 c -0.681,2.516 -3.809,3.38 -5.684,1.57 l -9.41,-9.077 c -2.995,-2.889 -6.994,-4.504 -11.155,-4.504 h -8.657 c -3.751,0 -7.131,2.26 -8.567,5.725 l -40.791,98.488 c -1.436,3.465 -0.643,7.454 2.01,10.107 l 6.122,6.122 c 2.941,2.942 6.911,4.629 11.073,4.703 l 13.069,0.235 c 2.605,0.047 4.206,2.869 2.91,5.13 l -4.576,7.974 c -3.267,5.694 -7.99,10.417 -13.684,13.684 l -7.97,4.573 c -2.26,1.296 -5.082,-0.304 -5.129,-2.91 l -0.235,-13.069 c -0.075,-4.162 -1.761,-8.132 -4.704,-11.075 l -6.121,-6.122 c -2.652,-2.653 -6.64,-3.446 -10.105,-2.011 l -98.482,40.795 c -3.465,1.435 -5.724,4.817 -5.724,8.568 v 8.657 c 0,4.163 1.615,8.163 4.505,11.158 l 9.076,9.407 c 1.81,1.876 0.945,5.005 -1.57,5.685 l -8.874,2.404 c -6.336,1.716 -13.013,1.715 -19.349,-0.001 l -8.871,-2.403 c -2.515,-0.68 -3.379,-3.809 -1.569,-5.685 l 9.074,-9.404 c 2.89,-2.996 4.505,-6.997 4.505,-11.161 v -8.657 c 0,-3.751 -2.259,-7.133 -5.724,-8.568 l -98.48,-40.795 c -3.465,-1.436 -7.453,-0.642 -10.105,2.01 l -6.123,6.123 c -2.942,2.941 -4.627,6.91 -4.702,11.07 l -0.235,13.074 c -0.047,2.606 -2.87,4.207 -5.13,2.91 l -7.974,-4.576 c -5.691,-3.266 -10.412,-7.987 -13.678,-13.679 l -4.577,-7.977 c -1.297,-2.26 0.304,-5.082 2.909,-5.129 l 13.069,-0.235 c 4.161,-0.074 8.131,-1.761 11.073,-4.703 l 6.123,-6.122 c 2.652,-2.653 3.445,-6.642 2.01,-10.107 L -383.622,2.588 c -1.435,-3.465 -4.816,-5.725 -8.567,-5.725 h -8.658 c -4.161,0 -8.16,1.616 -11.155,4.505 l -9.407,9.076 c -1.875,1.81 -5.004,0.946 -5.684,-1.569 L -429.495,0 c -1.715,-6.335 -1.715,-13.013 0,-19.348 l 2.402,-8.875 c 0.68,-2.514 3.809,-3.379 5.684,-1.569 l 9.407,9.076 c 2.995,2.89 6.994,4.505 11.155,4.505 h 8.658 c 3.751,0 7.132,-2.26 8.567,-5.725 l 40.793,-98.488 c 1.435,-3.465 0.642,-7.454 -2.01,-10.106 l -6.122,-6.122 c -2.943,-2.943 -6.913,-4.629 -11.074,-4.703 l -13.068,-0.236 c -2.606,-0.046 -4.207,-2.869 -2.91,-5.13 l 4.577,-7.975 c 3.266,-5.693 7.987,-10.413 13.678,-13.68 l 7.974,-4.576 c 2.26,-1.297 5.083,0.305 5.13,2.91 l 0.235,13.075 c 0.075,4.159 1.76,8.128 4.702,11.07 l 6.123,6.123 c 2.652,2.651 6.64,3.445 10.105,2.009 l 98.48,-40.795 c 3.465,-1.435 5.724,-4.817 5.724,-8.568 v -8.661 c 0,-4.161 -1.614,-8.159 -4.503,-11.153 l -9.076,-9.408 c -1.81,-1.876 -0.946,-5.004 1.569,-5.685 l 8.871,-2.402 c 6.336,-1.716 13.013,-1.716 19.349,-10e-4 l 8.875,2.403 c 2.515,0.681 3.379,3.809 1.57,5.684 l -9.077,9.409 c -2.89,2.995 -4.505,6.995 -4.505,11.157 v 8.657 c 0,3.751 2.259,7.133 5.724,8.568 l 98.482,40.795 c 3.465,1.436 7.453,0.642 10.105,-2.01 l 6.121,-6.122 c 2.943,-2.944 4.629,-6.914 4.704,-11.076 l 0.235,-13.069 c 0.047,-2.605 2.869,-4.206 5.129,-2.909 l 7.97,4.572 c 5.694,3.268 10.417,7.99 13.684,13.685 l 4.576,7.973 c 1.296,2.261 -0.305,5.084 -2.91,5.13 l -13.069,0.236 c -4.162,0.074 -8.132,1.76 -11.073,4.703 l -6.122,6.122 c -2.653,2.652 -3.446,6.641 -2.01,10.106 l 40.791,98.488 c 1.436,3.465 4.816,5.725 8.567,5.725 h 8.656 c 4.162,0 8.162,-1.615 11.157,-4.505 l 9.409,-9.077 c 1.875,-1.809 5.003,-0.944 5.684,1.57 L 0,-19.348 C 1.715,-13.013 1.715,-6.335 0,0 Z" />
        </g>
        <g
           transform="translate(181.3023,355.3086)"
           id="g143">
          <path
             inkscape:connector-curvature="0"
             id="path145"
             style="fill:none;stroke:#ffffff;stroke-width:7;stroke-linecap:butt;stroke-linejoin:miter;stroke-miterlimit:10;stroke-dasharray:none;stroke-opacity:1"
             d="m 0,0 c 36.596,9.979 68.574,30.814 103.466,45.025 14.664,5.973 29.797,12.423 46.019,11.122 13.473,-1.08 25.955,-6.724 36.134,-15.526 17.589,-15.208 29.641,-35.792 48.111,-50.106 10.158,-7.872 20.561,-11.361 33.327,-11.028 13.571,0.355 27.048,3.01 40.34,5.572" />
        </g>
        <g
           transform="translate(467.3707,296.8643)"
           id="g147">
          <path
             inkscape:connector-curvature="0"
             id="path149"
             style="fill:none;stroke:#ffffff;stroke-width:7;stroke-linecap:butt;stroke-linejoin:miter;stroke-miterlimit:10;stroke-dasharray:none;stroke-opacity:1"
             d="m 0,0 c -19.501,-0.102 -38.043,5.558 -54.185,16.477 -15.162,10.255 -25.613,25.014 -39.894,36.036 -10.804,8.338 -26.611,12.108 -40.141,11.211 -13.019,-0.863 -25.39,-6.282 -37.228,-11.273 C -202.614,39.311 -235,29.273 -267.416,19.738" />
        </g>
        <g
           transform="translate(190.5123,416.4609)"
           id="g151">
          <path
             inkscape:connector-curvature="0"
             id="path153"
             style="fill:none;stroke:#ffffff;stroke-width:7;stroke-linecap:butt;stroke-linejoin:miter;stroke-miterlimit:10;stroke-dasharray:none;stroke-opacity:1"
             d="m 0,0 c 11.632,7.151 23.729,14.47 37.337,17.771 14.554,3.531 27.206,0.2 39.199,-8.138 12.928,-8.988 22.138,-22.094 30.747,-35.029 12.885,-19.359 21.566,-41.666 34.561,-61.163 27.956,-41.943 82.816,-47.817 129.392,-47.817" />
        </g>
      </g>
    </g>
  </g>
  <path
     style="fill:none;fill-opacity:1;fill-rule:nonzero;stroke:none;stroke-width:0.0297475"
     d="m 90.716926,50.792098 a 7.4491309,7.4491309 0 0 0 2.276219,5.363168 l -10.99201,15.469031 a 9.2505659,9.2505659 0 0 0 -4.426457,-1.121826 c -2.1211,0 -4.07851,0.713889 -5.645982,1.916274 l -5.071785,-5.17634 a 11.342527,11.342527 0 0 0 2.66273,-7.318009 c 0,-6.294738 -5.123206,-11.413659 -11.417087,-11.413659 -6.292168,0 -11.414516,5.118921 -11.414516,11.413659 0,2.35335 0.717317,4.542153 1.942841,6.363299 l -8.141595,6.731814 a 9.3345529,9.3345529 0 0 0 -6.43186,-2.567602 c -5.160914,0 -9.358549,4.197635 -9.358549,9.358549 v 0.04799 L 19.008329,66.118007 a 2.7561442,2.7561442 0 0 1 0,-2.109101 l 12.726598,-30.72638 a 2.7621432,2.7621432 0 0 1 1.492912,-1.492911 L 63.95079,19.063016 a 2.7638573,2.7638573 0 0 1 2.111673,0 l 30.726379,12.726599 a 2.7715703,2.7715703 0 0 1 1.492912,1.492911 l 4.968086,11.99814 A 7.4474169,7.4474169 0 0 0 98.198624,43.3104 c -4.125646,0 -7.481698,3.356051 -7.481698,7.481698"
     id="path4"
     inkscape:connector-curvature="0" />
  <text
     style="font-variant:normal;font-weight:normal;font-stretch:normal;font-size:78.3021698px;font-family:'Avenir Next';-inkscape-font-specification:AvenirNext-Regular;writing-mode:lr-tb;fill:#24487b;fill-opacity:1;fill-rule:nonzero;stroke:none;stroke-width:0.35277733"
     id="text121"
     x="538.90527"
     y="280.9046">
    <tspan
       x="538.90527 595.12622 640.61975"
       y="280.9046"
       sodipodi:role="line"
       id="tspan119"
       style="stroke-width:0.35277733">Hub</tspan>
  </text>
</svg>
