<svg xmlns="http://www.w3.org/2000/svg" viewBox="0 0 270.933 270.933" height="1024" width="1024"><defs><clipPath id="a" clipPathUnits="userSpaceOnUse"><path d="M0 750h3076.907V0H0Z"/></clipPath><clipPath id="b" clipPathUnits="userSpaceOnUse"><path d="M0 750h3076.907V0H0Z"/></clipPath></defs><g clip-path="url(#a)" transform="matrix(.2975 0 0 -.2975 29.208 176.76)"><path style="fill:#003a80;fill-opacity:1;fill-rule:nonzero;stroke:none" d="M0 0c-6.25 2.862-11.938 7.097-16.949 11.789-17.145 16.057-31.08 36.097-49.977 50.229-5.877 4.394-12.436 7.589-21.338 9.385-9.82 1.981-21.755 1.847-33.204-.792-5.888-1.357-10.738-2.461-16.549-4.771-2.731 3.771-6.608 7.435-9.742 10.886-6.991 7.697-15.341 13.373-25.031 17.147-16.007 6.234-33.14 4.278-47.731-4.107-1.629-.937-5.154-2.104-5.899-3.958l-23.778-59.255-.691-1.146.282-3.477 45.184-105.736L-91.07-130.38 17.812-84.616l35.23 85.649c-12.42-2.372-25.26-5.273-37.986-4.778C9.75-3.538 4.715-2.159 0 0" transform="translate(431.065 348.793)"/></g><g clip-path="url(#b)" transform="matrix(.2975 0 0 -.2975 29.208 176.76)"><path style="fill:none;stroke:#003a80;stroke-width:5.29899979;stroke-linecap:butt;stroke-linejoin:miter;stroke-miterlimit:10;stroke-dasharray:none;stroke-opacity:1" d="M0 0v-.16l-19.128 46.189a9.268 9.268 0 0 0 0 7.091l42.776 103.29a9.288 9.288 0 0 0 5.02 5.02l103.272 42.78a9.3 9.3 0 0 0 7.1 0l103.282-42.78a9.322 9.322 0 0 0 5.019-5.02l15.954-38.531" transform="translate(201.896 325.9)"/><path style="fill:none;stroke:#003a80;stroke-width:5.29899979;stroke-linecap:butt;stroke-linejoin:miter;stroke-miterlimit:10;stroke-dasharray:none;stroke-opacity:1" d="m0 0 26.823-64.759c.94-2.27.94-4.82 0-7.091l-42.777-103.29a9.353 9.353 0 0 0-5.019-5.019l-103.282-42.78a9.29 9.29 0 0 0-7.1 0l-103.272 42.78a9.319 9.319 0 0 0-5.02 5.019l-25.171 60.779" transform="translate(465.19 443.778)"/><path style="fill:none;stroke:#003a80;stroke-width:5.29899979;stroke-linecap:butt;stroke-linejoin:miter;stroke-miterlimit:10;stroke-dasharray:none;stroke-opacity:1" d="m0 0-2.402 8.874c-.681 2.516-3.809 3.38-5.684 1.57l-9.41-9.077a16.068 16.068 0 0 0-11.155-4.504h-8.657a9.274 9.274 0 0 0-8.567 5.725l-40.791 98.488a9.273 9.273 0 0 0 2.01 10.107l6.122 6.122a16.061 16.061 0 0 0 11.073 4.703l13.069.235c2.605.047 4.206 2.869 2.91 5.13l-4.576 7.974a37.014 37.014 0 0 1-13.684 13.684l-7.97 4.573c-2.26 1.296-5.082-.304-5.129-2.91l-.235-13.069a16.07 16.07 0 0 0-4.704-11.075l-6.121-6.122a9.271 9.271 0 0 0-10.105-2.011l-98.482 40.795a9.273 9.273 0 0 0-5.724 8.568v8.657c0 4.163 1.615 8.163 4.505 11.158l9.076 9.407c1.81 1.876.945 5.005-1.57 5.685l-8.874 2.404a37.006 37.006 0 0 1-19.349-.001l-8.871-2.403c-2.515-.68-3.379-3.809-1.569-5.685l9.074-9.404a16.076 16.076 0 0 0 4.505-11.161v-8.657a9.273 9.273 0 0 0-5.724-8.568l-98.48-40.795a9.27 9.27 0 0 0-10.105 2.01l-6.123 6.123a16.061 16.061 0 0 0-4.702 11.07l-.235 13.074c-.047 2.606-2.87 4.207-5.13 2.91l-7.974-4.576a37.007 37.007 0 0 1-13.678-13.679l-4.577-7.977c-1.297-2.26.304-5.082 2.909-5.129l13.069-.235a16.065 16.065 0 0 0 11.073-4.703l6.123-6.122a9.276 9.276 0 0 0 2.01-10.107l-40.793-98.488a9.273 9.273 0 0 0-8.567-5.725h-8.658a16.07 16.07 0 0 0-11.155 4.505l-9.407 9.076c-1.875 1.81-5.004.946-5.684-1.569L-429.495 0a37.023 37.023 0 0 1 0-19.348l2.402-8.875c.68-2.514 3.809-3.379 5.684-1.569l9.407 9.076a16.065 16.065 0 0 0 11.155 4.505h8.658a9.273 9.273 0 0 0 8.567-5.725l40.793-98.488a9.274 9.274 0 0 0-2.01-10.106l-6.122-6.122a16.065 16.065 0 0 0-11.074-4.703l-13.068-.236c-2.606-.046-4.207-2.869-2.91-5.13l4.577-7.975a37.01 37.01 0 0 1 13.678-13.68l7.974-4.576c2.26-1.297 5.083.305 5.13 2.91l.235 13.075a16.065 16.065 0 0 0 4.702 11.07l6.123 6.123a9.272 9.272 0 0 0 10.105 2.009l98.48-40.795a9.273 9.273 0 0 0 5.724-8.568v-8.661a16.06 16.06 0 0 0-4.503-11.153l-9.076-9.408c-1.81-1.876-.946-5.004 1.569-5.685l8.871-2.402a37.016 37.016 0 0 1 19.349-.001l8.875 2.403c2.515.681 3.379 3.809 1.57 5.684l-9.077 9.409a16.068 16.068 0 0 0-4.505 11.157v8.657a9.273 9.273 0 0 0 5.724 8.568l98.482 40.795a9.27 9.27 0 0 0 10.105-2.01l6.121-6.122a16.075 16.075 0 0 0 4.704-11.076l.235-13.069c.047-2.605 2.869-4.206 5.129-2.909l7.97 4.572a37.017 37.017 0 0 1 13.684 13.685l4.576 7.973c1.296 2.261-.305 5.084-2.91 5.13l-13.069.236a16.057 16.057 0 0 0-11.073 4.703l-6.122 6.122a9.27 9.27 0 0 0-2.01 10.106l40.791 98.488a9.274 9.274 0 0 0 8.567 5.725h8.656c4.162 0 8.162-1.615 11.157-4.505l9.409-9.077c1.875-1.809 5.003-.944 5.684 1.57L0-19.348A37.023 37.023 0 0 1 0 0Z" transform="translate(552.137 385.148)"/><path style="fill:none;stroke:#fff;stroke-width:7;stroke-linecap:butt;stroke-linejoin:miter;stroke-miterlimit:10;stroke-dasharray:none;stroke-opacity:1" d="M0 0c36.596 9.979 68.574 30.814 103.466 45.025 14.664 5.973 29.797 12.423 46.019 11.122 13.473-1.08 25.955-6.724 36.134-15.526C203.208 25.413 215.26 4.829 233.73-9.485c10.158-7.872 20.561-11.361 33.327-11.028 13.571.355 27.048 3.01 40.34 5.572" transform="translate(181.302 355.309)"/><path style="fill:none;stroke:#fff;stroke-width:7;stroke-linecap:butt;stroke-linejoin:miter;stroke-miterlimit:10;stroke-dasharray:none;stroke-opacity:1" d="M0 0c-19.501-.102-38.043 5.558-54.185 16.477-15.162 10.255-25.613 25.014-39.894 36.036-10.804 8.338-26.611 12.108-40.141 11.211-13.019-.863-25.39-6.282-37.228-11.273-31.166-13.14-63.552-23.178-95.968-32.713" transform="translate(467.37 296.864)"/><path style="fill:none;stroke:#fff;stroke-width:7;stroke-linecap:butt;stroke-linejoin:miter;stroke-miterlimit:10;stroke-dasharray:none;stroke-opacity:1" d="M0 0c11.632 7.151 23.729 14.47 37.337 17.771 14.554 3.531 27.206.2 39.199-8.138C89.464.645 98.674-12.461 107.283-25.396c12.885-19.359 21.566-41.666 34.561-61.163 27.956-41.943 82.816-47.817 129.392-47.817" transform="translate(190.512 416.46)"/></g><path d="M144.561 198.738c-8.147-2.273-6.71-17.107-14.331-16.732-3.967 1.528-6.333-.36-3.653 4.35-7.431 5.975-17.232 16.188-24.793 3.9-.117-7.805 20.99.404 11.038-10.369-8.476-4.729-13.878-13.608-18.606-20.265-7.09 1.885-13.221 6.594-18.99.735-3.786 4.12-4.303 8.691-11.829 8.783-9.694 4.21-10.266 18.967-24.173 15.876-7.19-2.349-16.364 3.187-15.459-6.7-15.073-3.629-3.358-19.625 1.272-27.496-.258-16.003 19.094-4.16 26.186-.312 12.055-4.017 4.75-18.865-2.907-23.323 2.547-10.25 12.919 3.134 14.063-5.298 1.87 1.095 13.004 2.146 8.136-.301-4.994-3.707-22.915 2.554-18.775-6.62 7.588-1.057-1.38-7.123 7.334-7.951-4.711-1.231-15.784 6.18-19.56-2.042 1.734-9.29 13.828-21.984 21.542-10.713 2.711 5.424-9.318 14.412 1.947 8.422 5.113-1.562-2.418-7.31-.367-11.107-5.89-10.794 14.24-19.261 13.188-7.483 6.2 5.057-8.015 8.428-.18 12.29.384 6.5 1.549 12.347 4.344 17.305-8.438 7.803 7.745 3.97 6.01-2.764 5.766-.387 16.63-.126 12.777-9.391-1.814-8.798 11.623-9.685 11.724-12.005-4.55 1.889-19.912 2.026-14.955-9.172-2.241-14.635 13.039-15.8 20.591-24.33 4.53-10.367 12.791-18.314 21.414-25.463 5.024-7.165 13.717-4.945 18.633 1.176 7.617 4.05 21.45.345 24.312 11.554 6.132-1.66-9.795-10.174 1.483-12.62 8.494-2.62 7.86 12.372 8.702 1.298 2.793-7.497 15.217-8.076 15.176-17.532 9.49-5.102 21.819 4.843 16.27 15.243-4.104 12.029 8.709 19.601 12.227 30.035 4.937 5.416.49 16.336 9.49 15.384 4.107 2.29 6.14 6.334 6.84 11.99 5.197 1.54 18.813 2.287 9.367 9.963-9.481 5.834-18.555 7.922-28.852 10.823-2.5 7.212-9.547 14.303.827 18.276 11.56 4.371-6.52 14 4.696 19.191 6.631 7.084 20.028 11.034 11.804 23.077-4.333 3.264-6.851-4.67-11.028 1.792-8.988 4.737-13.873-10.774-22.043-5.852-2.014-.483-2.217-10.677-9.412-9.296-6.875-2.187-11.5-7.746-16.484.571-9.867 6.842-8.966-12.92-15.42-8.153-2.935 8.289-12.443 18.011-3.165 24.33-.043 8.263-13.177 7.244-16.8 6.499-2.226 4.468-7.686 3.373-3.094 9.55 1.245 4.67 1.21 14.23-6.517 10.877zm-13.824-23.655c-1.21-7.538-13.518-9.49-16.948-16.943-3.389-1.402-4.83-8.322-4.482-.378 4.968 8.766 13.429 14.49 21.361 19.7zm60.325-29.911c7.19 2.335 5.468-7.12.225-1.42-1.748.324-3.128 3.135-.225 1.42zm-68.694-37.049c7.46-.751 17.76-.359 14.35-11.135 4.253-4.107-3.114-9.274 4.646-13.547-8.434-.235-3.091-17.387-6.481-14.521-12.57 5.349 7.53 15.788-5.472 21.748-.926 8.394-7.926 17.054-15.716 15.641-6.834 1.878 3.861 2.198 5.151 4.555 1.096-1.008 2.236-1.978 3.522-2.74zm-11.036-9.192c1.127-5.713-2.697.5 0 0zm33.53-7.586c-.666.296-.31.07 0 0zm-.536-6.895c-.812-1.687-1.027 1.332 0 0zm10.397-2.434c5.816-4.786-8.315 2.584 0 0zm-14.455-19.855c6.432-6.044-.117-8.422-1.038-.796-.914 2.67-1.272 4.785 1.038.796zm32.006-9.333c10.435.445.884-4.666-4.399-3.16.43 1.036 1.926 7.102 4.4 3.16zM87.28 184.08c-2.44-7.187.549-16.567 5.354-21.63 9.378-.206-.431 10.313 3.702 15.45-.339 4.16-4.71 9.007-9.056 6.18zM50.698 45.4c-13.642-2.935-8.122-24.719 5.47-16.314 13.27-.651 14.889 18.82.618 16.476-2.03-.008-4.063-.014-6.088-.162z" style="fill:#000;fill-opacity:.05;stroke-width:.26458299" transform="translate(15.647) scale(.85701)"/><path style="fill:none;fill-opacity:1;fill-rule:nonzero;stroke:none;stroke-width:.0347108" d="M162.942 59.26a8.692 8.692 0 0 0 2.656 6.258l-12.826 18.05a10.794 10.794 0 0 0-5.165-1.309c-2.475 0-4.759.833-6.588 2.236l-5.918-6.04a13.235 13.235 0 0 0 3.107-8.539c0-7.345-5.978-13.318-13.322-13.318-7.342 0-13.319 5.973-13.319 13.318 0 2.746.837 5.3 2.267 7.425l-9.5 7.855a10.892 10.892 0 0 0-7.505-2.996c-6.022 0-10.92 4.898-10.92 10.92v.056l-6.64-16.033a3.216 3.216 0 0 1 0-2.461l14.85-35.853a3.223 3.223 0 0 1 1.742-1.742l35.849-14.85a3.225 3.225 0 0 1 2.464 0l35.853 14.85a3.234 3.234 0 0 1 1.742 1.742l5.797 14a8.69 8.69 0 0 0-5.894-2.299c-4.814 0-8.73 3.916-8.73 8.73" transform="translate(15.647) scale(.85701)"/><text xml:space="preserve" style="font-style:normal;font-variant:normal;font-weight:400;font-stretch:normal;font-size:10.58332062px;line-height:1.25;font-family:'Avenir Next';-inkscape-font-specification:'Avenir Next';letter-spacing:0;word-spacing:0;fill:#64a621;fill-opacity:1;stroke:none;stroke-width:.26458302" x="60.466" y="150.837"><tspan x="60.466" y="150.837" style="font-style:normal;font-variant:normal;font-weight:400;font-stretch:normal;font-size:16.22775841px;line-height:1;font-family:Roboto;-inkscape-font-specification:Roboto;fill:#64a621;fill-opacity:1;stroke-width:.26458302"><tspan style="font-style:normal;font-variant:normal;font-weight:700;font-stretch:normal;font-size:16.22775841px;font-family:Roboto;-inkscape-font-specification:'Roboto Bold';fill:#64a621;fill-opacity:1">European</tspan>COVID-19</tspan><tspan x="60.466" y="173.762" style="font-style:normal;font-variant:normal;font-weight:400;font-stretch:normal;font-size:23.98885918px;line-height:1;font-family:Roboto;-inkscape-font-specification:Roboto;fill:#64a621;fill-opacity:1;stroke-width:.26458302"><tspan style="-inkscape-font-specification:'Roboto Bold';font-family:Roboto;font-weight:700;font-style:normal;font-stretch:normal;font-variant:normal;fill:#64a621;fill-opacity:1">Scenario</tspan>Hub</tspan></text><text style="font-variant:normal;font-weight:400;font-stretch:normal;font-size:78.3021698px;font-family:'Avenir Next';-inkscape-font-specification:AvenirNext-Regular;writing-mode:lr-tb;fill:#24487b;fill-opacity:1;fill-rule:nonzero;stroke:none;stroke-width:.35277733" x="603.478" y="280.899">
    <tspan x="603.47827 659.69922 705.19275" y="280.899" style="stroke-width:.35277733">Hub</tspan>
  </text></svg>